<mxfile host="app.diagrams.net" agent="Mozilla/5.0 (Windows NT 10.0; Win64; x64) AppleWebKit/537.36 (KHTML, like Gecko) Chrome/129.0.0.0 Safari/537.36" version="24.7.17">
  <diagram name="Page-1" id="a6mXKFydvhSsRMZqOBNh">
    <mxGraphModel dx="2003" dy="1124" grid="0" gridSize="10" guides="1" tooltips="1" connect="1" arrows="1" fold="1" page="0" pageScale="1" pageWidth="850" pageHeight="1100" math="0" shadow="0">
      <root>
        <mxCell id="0" />
        <mxCell id="1" parent="0" />
        <mxCell id="H-KXJWqT2OGXt6RS_ryf-1" value="Pool" style="swimlane;html=1;childLayout=stackLayout;resizeParent=1;resizeParentMax=0;startSize=20;whiteSpace=wrap;movable=1;resizable=1;rotatable=1;deletable=1;editable=1;locked=0;connectable=1;" vertex="1" parent="1">
          <mxGeometry x="-8" y="3" width="803" height="1406" as="geometry" />
        </mxCell>
        <mxCell id="H-KXJWqT2OGXt6RS_ryf-2" value="Patient" style="swimlane;html=1;startSize=20;" vertex="1" parent="H-KXJWqT2OGXt6RS_ryf-1">
          <mxGeometry y="20" width="221" height="1386" as="geometry" />
        </mxCell>
        <mxCell id="H-KXJWqT2OGXt6RS_ryf-62" style="edgeStyle=none;curved=1;rounded=0;orthogonalLoop=1;jettySize=auto;html=1;fontSize=12;startSize=8;endSize=8;" edge="1" parent="H-KXJWqT2OGXt6RS_ryf-2" source="H-KXJWqT2OGXt6RS_ryf-21" target="H-KXJWqT2OGXt6RS_ryf-56">
          <mxGeometry relative="1" as="geometry" />
        </mxCell>
        <mxCell id="H-KXJWqT2OGXt6RS_ryf-21" value="do you want to delete application" style="rhombus;whiteSpace=wrap;html=1;fontFamily=Helvetica;fontSize=12;fontColor=#000000;align=center;" vertex="1" parent="H-KXJWqT2OGXt6RS_ryf-2">
          <mxGeometry x="27.5" y="593" width="155" height="89" as="geometry" />
        </mxCell>
        <mxCell id="H-KXJWqT2OGXt6RS_ryf-61" style="edgeStyle=none;curved=1;rounded=0;orthogonalLoop=1;jettySize=auto;html=1;fontSize=12;startSize=8;endSize=8;" edge="1" parent="H-KXJWqT2OGXt6RS_ryf-2" source="H-KXJWqT2OGXt6RS_ryf-56" target="H-KXJWqT2OGXt6RS_ryf-58">
          <mxGeometry relative="1" as="geometry" />
        </mxCell>
        <mxCell id="H-KXJWqT2OGXt6RS_ryf-56" value="update application" style="rounded=0;whiteSpace=wrap;html=1;fontFamily=Helvetica;fontSize=12;fontColor=#000000;align=center;" vertex="1" parent="H-KXJWqT2OGXt6RS_ryf-2">
          <mxGeometry x="67" y="713" width="80" height="60" as="geometry" />
        </mxCell>
        <mxCell id="H-KXJWqT2OGXt6RS_ryf-57" style="edgeStyle=none;curved=1;rounded=0;orthogonalLoop=1;jettySize=auto;html=1;fontSize=12;startSize=8;endSize=8;entryX=1;entryY=0;entryDx=0;entryDy=0;exitX=0.788;exitY=1;exitDx=0;exitDy=0;exitPerimeter=0;" edge="1" parent="H-KXJWqT2OGXt6RS_ryf-2" source="H-KXJWqT2OGXt6RS_ryf-58" target="H-KXJWqT2OGXt6RS_ryf-60">
          <mxGeometry relative="1" as="geometry">
            <Array as="points">
              <mxPoint x="145.5" y="884" />
            </Array>
          </mxGeometry>
        </mxCell>
        <mxCell id="H-KXJWqT2OGXt6RS_ryf-58" value="enterfields" style="rounded=0;whiteSpace=wrap;html=1;fontFamily=Helvetica;fontSize=12;fontColor=#000000;align=center;" vertex="1" parent="H-KXJWqT2OGXt6RS_ryf-2">
          <mxGeometry x="67" y="800" width="80" height="60" as="geometry" />
        </mxCell>
        <mxCell id="H-KXJWqT2OGXt6RS_ryf-59" value="no" style="edgeStyle=none;curved=1;rounded=0;orthogonalLoop=1;jettySize=auto;html=1;entryX=0.25;entryY=1;entryDx=0;entryDy=0;fontSize=12;startSize=8;endSize=8;exitX=0;exitY=0;exitDx=0;exitDy=0;" edge="1" parent="H-KXJWqT2OGXt6RS_ryf-2" source="H-KXJWqT2OGXt6RS_ryf-60" target="H-KXJWqT2OGXt6RS_ryf-58">
          <mxGeometry relative="1" as="geometry">
            <Array as="points">
              <mxPoint x="51.5" y="882" />
            </Array>
          </mxGeometry>
        </mxCell>
        <mxCell id="H-KXJWqT2OGXt6RS_ryf-60" value="are all fields edited/filled" style="rhombus;whiteSpace=wrap;html=1;fontFamily=Helvetica;fontSize=12;fontColor=#000000;align=center;" vertex="1" parent="H-KXJWqT2OGXt6RS_ryf-2">
          <mxGeometry x="46" y="896" width="118" height="67" as="geometry" />
        </mxCell>
        <mxCell id="H-KXJWqT2OGXt6RS_ryf-93" value="contact hotline" style="rounded=0;whiteSpace=wrap;html=1;fontFamily=Helvetica;fontSize=12;fontColor=#000000;align=center;" vertex="1" parent="H-KXJWqT2OGXt6RS_ryf-2">
          <mxGeometry x="65" y="1006" width="80" height="60" as="geometry" />
        </mxCell>
        <mxCell id="H-KXJWqT2OGXt6RS_ryf-3" value="Server" style="swimlane;html=1;startSize=20;" vertex="1" parent="H-KXJWqT2OGXt6RS_ryf-1">
          <mxGeometry x="221" y="20" width="170" height="1386" as="geometry" />
        </mxCell>
        <mxCell id="H-KXJWqT2OGXt6RS_ryf-63" value="update triage application" style="ellipse;whiteSpace=wrap;html=1;" vertex="1" parent="H-KXJWqT2OGXt6RS_ryf-3">
          <mxGeometry x="44.75" y="682" width="80.5" height="70" as="geometry" />
        </mxCell>
        <mxCell id="H-KXJWqT2OGXt6RS_ryf-92" style="edgeStyle=none;curved=1;rounded=0;orthogonalLoop=1;jettySize=auto;html=1;fontSize=12;startSize=8;endSize=8;" edge="1" parent="H-KXJWqT2OGXt6RS_ryf-3" source="H-KXJWqT2OGXt6RS_ryf-80" target="H-KXJWqT2OGXt6RS_ryf-91">
          <mxGeometry relative="1" as="geometry" />
        </mxCell>
        <mxCell id="H-KXJWqT2OGXt6RS_ryf-80" value="notify patient" style="rounded=0;whiteSpace=wrap;html=1;fontFamily=Helvetica;fontSize=12;fontColor=#000000;align=center;" vertex="1" parent="H-KXJWqT2OGXt6RS_ryf-3">
          <mxGeometry x="44.75" y="818" width="80" height="60" as="geometry" />
        </mxCell>
        <mxCell id="H-KXJWqT2OGXt6RS_ryf-91" value="does patient&amp;nbsp;&lt;div&gt;contact hotline&lt;/div&gt;" style="rhombus;whiteSpace=wrap;html=1;fontFamily=Helvetica;fontSize=12;fontColor=#000000;align=center;" vertex="1" parent="H-KXJWqT2OGXt6RS_ryf-3">
          <mxGeometry x="7.5" y="924" width="155" height="89" as="geometry" />
        </mxCell>
        <mxCell id="H-KXJWqT2OGXt6RS_ryf-4" value="Nurse" style="swimlane;html=1;startSize=20;" vertex="1" parent="H-KXJWqT2OGXt6RS_ryf-1">
          <mxGeometry x="391" y="20" width="207" height="1386" as="geometry" />
        </mxCell>
        <mxCell id="H-KXJWqT2OGXt6RS_ryf-79" style="edgeStyle=none;curved=1;rounded=0;orthogonalLoop=1;jettySize=auto;html=1;fontSize=12;startSize=8;endSize=8;" edge="1" parent="H-KXJWqT2OGXt6RS_ryf-4" source="H-KXJWqT2OGXt6RS_ryf-72" target="H-KXJWqT2OGXt6RS_ryf-74">
          <mxGeometry relative="1" as="geometry" />
        </mxCell>
        <mxCell id="H-KXJWqT2OGXt6RS_ryf-72" value="Nurse views triage application" style="rounded=0;whiteSpace=wrap;html=1;fontFamily=Helvetica;fontSize=12;fontColor=#000000;align=center;" vertex="1" parent="H-KXJWqT2OGXt6RS_ryf-4">
          <mxGeometry x="69.5" y="180" width="80" height="60" as="geometry" />
        </mxCell>
        <mxCell id="H-KXJWqT2OGXt6RS_ryf-78" value="no" style="edgeStyle=none;curved=1;rounded=0;orthogonalLoop=1;jettySize=auto;html=1;fontSize=12;startSize=8;endSize=8;" edge="1" parent="H-KXJWqT2OGXt6RS_ryf-4" source="H-KXJWqT2OGXt6RS_ryf-74" target="H-KXJWqT2OGXt6RS_ryf-76">
          <mxGeometry relative="1" as="geometry" />
        </mxCell>
        <mxCell id="H-KXJWqT2OGXt6RS_ryf-74" value="is triage application resolved" style="rhombus;whiteSpace=wrap;html=1;fontFamily=Helvetica;fontSize=12;fontColor=#000000;align=center;" vertex="1" parent="H-KXJWqT2OGXt6RS_ryf-4">
          <mxGeometry x="45" y="285" width="129" height="91" as="geometry" />
        </mxCell>
        <mxCell id="H-KXJWqT2OGXt6RS_ryf-76" value="is triage order correct" style="rhombus;whiteSpace=wrap;html=1;fontFamily=Helvetica;fontSize=12;fontColor=#000000;align=center;" vertex="1" parent="H-KXJWqT2OGXt6RS_ryf-4">
          <mxGeometry x="39" y="421" width="129" height="91" as="geometry" />
        </mxCell>
        <mxCell id="H-KXJWqT2OGXt6RS_ryf-5" value="Hotline Operator" style="swimlane;html=1;startSize=20;" vertex="1" parent="H-KXJWqT2OGXt6RS_ryf-1">
          <mxGeometry x="598" y="20" width="205" height="1386" as="geometry" />
        </mxCell>
        <mxCell id="H-KXJWqT2OGXt6RS_ryf-64" value="yes" style="edgeStyle=none;curved=1;rounded=0;orthogonalLoop=1;jettySize=auto;html=1;entryX=0.316;entryY=0.983;entryDx=0;entryDy=0;entryPerimeter=0;fontSize=12;startSize=8;endSize=8;" edge="1" parent="H-KXJWqT2OGXt6RS_ryf-1" source="H-KXJWqT2OGXt6RS_ryf-60" target="H-KXJWqT2OGXt6RS_ryf-63">
          <mxGeometry relative="1" as="geometry">
            <Array as="points">
              <mxPoint x="182" y="921" />
            </Array>
          </mxGeometry>
        </mxCell>
        <mxCell id="H-KXJWqT2OGXt6RS_ryf-81" value="yes" style="edgeStyle=none;curved=1;rounded=0;orthogonalLoop=1;jettySize=auto;html=1;fontSize=12;startSize=8;endSize=8;" edge="1" parent="H-KXJWqT2OGXt6RS_ryf-1" source="H-KXJWqT2OGXt6RS_ryf-76" target="H-KXJWqT2OGXt6RS_ryf-80">
          <mxGeometry relative="1" as="geometry" />
        </mxCell>
        <mxCell id="H-KXJWqT2OGXt6RS_ryf-94" style="edgeStyle=none;curved=1;rounded=0;orthogonalLoop=1;jettySize=auto;html=1;fontSize=12;startSize=8;endSize=8;" edge="1" parent="H-KXJWqT2OGXt6RS_ryf-1" source="H-KXJWqT2OGXt6RS_ryf-91" target="H-KXJWqT2OGXt6RS_ryf-93">
          <mxGeometry relative="1" as="geometry" />
        </mxCell>
        <mxCell id="H-KXJWqT2OGXt6RS_ryf-6" value="Pool" style="swimlane;html=1;childLayout=stackLayout;resizeParent=1;resizeParentMax=0;horizontal=0;startSize=20;horizontalStack=0;" vertex="1" parent="1">
          <mxGeometry x="-969" y="1014" width="450" height="360" as="geometry" />
        </mxCell>
        <mxCell id="H-KXJWqT2OGXt6RS_ryf-7" value="" style="edgeStyle=orthogonalEdgeStyle;rounded=0;orthogonalLoop=1;jettySize=auto;html=1;dashed=1;endArrow=none;endFill=0;" edge="1" parent="H-KXJWqT2OGXt6RS_ryf-6" source="H-KXJWqT2OGXt6RS_ryf-14" target="H-KXJWqT2OGXt6RS_ryf-20">
          <mxGeometry relative="1" as="geometry" />
        </mxCell>
        <mxCell id="H-KXJWqT2OGXt6RS_ryf-10" style="edgeStyle=orthogonalEdgeStyle;rounded=0;orthogonalLoop=1;jettySize=auto;html=1;endArrow=classic;endFill=1;" edge="1" parent="H-KXJWqT2OGXt6RS_ryf-6" source="H-KXJWqT2OGXt6RS_ryf-20" target="H-KXJWqT2OGXt6RS_ryf-25">
          <mxGeometry relative="1" as="geometry">
            <Array as="points">
              <mxPoint x="180" y="340" />
              <mxPoint x="400" y="340" />
            </Array>
          </mxGeometry>
        </mxCell>
        <mxCell id="H-KXJWqT2OGXt6RS_ryf-11" value="Lane 1" style="swimlane;html=1;startSize=20;horizontal=0;" vertex="1" parent="H-KXJWqT2OGXt6RS_ryf-6">
          <mxGeometry x="20" width="430" height="120" as="geometry" />
        </mxCell>
        <mxCell id="H-KXJWqT2OGXt6RS_ryf-12" value="" style="edgeStyle=orthogonalEdgeStyle;rounded=0;orthogonalLoop=1;jettySize=auto;html=1;" edge="1" parent="H-KXJWqT2OGXt6RS_ryf-11" source="H-KXJWqT2OGXt6RS_ryf-13" target="H-KXJWqT2OGXt6RS_ryf-14">
          <mxGeometry relative="1" as="geometry" />
        </mxCell>
        <mxCell id="H-KXJWqT2OGXt6RS_ryf-13" value="" style="ellipse;whiteSpace=wrap;html=1;" vertex="1" parent="H-KXJWqT2OGXt6RS_ryf-11">
          <mxGeometry x="40" y="40" width="40" height="40" as="geometry" />
        </mxCell>
        <mxCell id="H-KXJWqT2OGXt6RS_ryf-14" value="" style="rounded=0;whiteSpace=wrap;html=1;fontFamily=Helvetica;fontSize=12;fontColor=#000000;align=center;" vertex="1" parent="H-KXJWqT2OGXt6RS_ryf-11">
          <mxGeometry x="120" y="30" width="80" height="60" as="geometry" />
        </mxCell>
        <mxCell id="H-KXJWqT2OGXt6RS_ryf-15" value="" style="edgeStyle=orthogonalEdgeStyle;rounded=0;orthogonalLoop=1;jettySize=auto;html=1;endArrow=classic;endFill=1;" edge="1" parent="H-KXJWqT2OGXt6RS_ryf-11" source="H-KXJWqT2OGXt6RS_ryf-16" target="H-KXJWqT2OGXt6RS_ryf-17">
          <mxGeometry relative="1" as="geometry" />
        </mxCell>
        <mxCell id="H-KXJWqT2OGXt6RS_ryf-16" value="" style="rounded=0;whiteSpace=wrap;html=1;fontFamily=Helvetica;fontSize=12;fontColor=#000000;align=center;" vertex="1" parent="H-KXJWqT2OGXt6RS_ryf-11">
          <mxGeometry x="240" y="30" width="80" height="60" as="geometry" />
        </mxCell>
        <mxCell id="H-KXJWqT2OGXt6RS_ryf-17" value="" style="ellipse;whiteSpace=wrap;html=1;" vertex="1" parent="H-KXJWqT2OGXt6RS_ryf-11">
          <mxGeometry x="360" y="40" width="40" height="40" as="geometry" />
        </mxCell>
        <mxCell id="H-KXJWqT2OGXt6RS_ryf-18" value="Lane 2" style="swimlane;html=1;startSize=20;horizontal=0;" vertex="1" parent="H-KXJWqT2OGXt6RS_ryf-6">
          <mxGeometry x="20" y="120" width="430" height="120" as="geometry" />
        </mxCell>
        <mxCell id="H-KXJWqT2OGXt6RS_ryf-20" value="" style="rounded=0;whiteSpace=wrap;html=1;fontFamily=Helvetica;fontSize=12;fontColor=#000000;align=center;" vertex="1" parent="H-KXJWqT2OGXt6RS_ryf-18">
          <mxGeometry x="120" y="30" width="80" height="60" as="geometry" />
        </mxCell>
        <mxCell id="H-KXJWqT2OGXt6RS_ryf-22" value="Lane 3" style="swimlane;html=1;startSize=20;horizontal=0;" vertex="1" parent="H-KXJWqT2OGXt6RS_ryf-6">
          <mxGeometry x="20" y="240" width="430" height="120" as="geometry" />
        </mxCell>
        <mxCell id="H-KXJWqT2OGXt6RS_ryf-23" value="" style="edgeStyle=orthogonalEdgeStyle;rounded=0;orthogonalLoop=1;jettySize=auto;html=1;endArrow=classic;endFill=1;" edge="1" parent="H-KXJWqT2OGXt6RS_ryf-22" source="H-KXJWqT2OGXt6RS_ryf-24" target="H-KXJWqT2OGXt6RS_ryf-25">
          <mxGeometry relative="1" as="geometry" />
        </mxCell>
        <mxCell id="H-KXJWqT2OGXt6RS_ryf-24" value="" style="rounded=0;whiteSpace=wrap;html=1;fontFamily=Helvetica;fontSize=12;fontColor=#000000;align=center;" vertex="1" parent="H-KXJWqT2OGXt6RS_ryf-22">
          <mxGeometry x="240" y="20" width="80" height="60" as="geometry" />
        </mxCell>
        <mxCell id="H-KXJWqT2OGXt6RS_ryf-25" value="" style="rhombus;whiteSpace=wrap;html=1;fontFamily=Helvetica;fontSize=12;fontColor=#000000;align=center;" vertex="1" parent="H-KXJWqT2OGXt6RS_ryf-22">
          <mxGeometry x="360" y="30" width="40" height="40" as="geometry" />
        </mxCell>
        <mxCell id="H-KXJWqT2OGXt6RS_ryf-42" style="edgeStyle=none;curved=1;rounded=0;orthogonalLoop=1;jettySize=auto;html=1;fontSize=12;startSize=8;endSize=8;" edge="1" parent="1" source="H-KXJWqT2OGXt6RS_ryf-28" target="H-KXJWqT2OGXt6RS_ryf-35">
          <mxGeometry relative="1" as="geometry" />
        </mxCell>
        <mxCell id="H-KXJWqT2OGXt6RS_ryf-28" value="create application" style="rounded=0;whiteSpace=wrap;html=1;fontFamily=Helvetica;fontSize=12;fontColor=#000000;align=center;" vertex="1" parent="1">
          <mxGeometry x="53" y="198" width="80" height="60" as="geometry" />
        </mxCell>
        <mxCell id="H-KXJWqT2OGXt6RS_ryf-49" value="no" style="edgeStyle=none;curved=1;rounded=0;orthogonalLoop=1;jettySize=auto;html=1;fontSize=12;startSize=8;endSize=8;" edge="1" parent="1" source="H-KXJWqT2OGXt6RS_ryf-29" target="H-KXJWqT2OGXt6RS_ryf-21">
          <mxGeometry relative="1" as="geometry" />
        </mxCell>
        <mxCell id="H-KXJWqT2OGXt6RS_ryf-29" value="is triage correct" style="rhombus;whiteSpace=wrap;html=1;fontFamily=Helvetica;fontSize=12;fontColor=#000000;align=center;" vertex="1" parent="1">
          <mxGeometry x="41" y="492" width="112" height="83" as="geometry" />
        </mxCell>
        <mxCell id="H-KXJWqT2OGXt6RS_ryf-73" style="edgeStyle=none;curved=1;rounded=0;orthogonalLoop=1;jettySize=auto;html=1;fontSize=12;startSize=8;endSize=8;" edge="1" parent="1" source="H-KXJWqT2OGXt6RS_ryf-30" target="H-KXJWqT2OGXt6RS_ryf-72">
          <mxGeometry relative="1" as="geometry" />
        </mxCell>
        <mxCell id="H-KXJWqT2OGXt6RS_ryf-30" value="Nurse Views Triage Order" style="ellipse;whiteSpace=wrap;html=1;" vertex="1" parent="1">
          <mxGeometry x="428" y="76" width="129" height="61.5" as="geometry" />
        </mxCell>
        <mxCell id="H-KXJWqT2OGXt6RS_ryf-41" value="no" style="edgeStyle=none;curved=1;rounded=0;orthogonalLoop=1;jettySize=auto;html=1;fontSize=12;startSize=8;endSize=8;" edge="1" parent="1" source="H-KXJWqT2OGXt6RS_ryf-32" target="H-KXJWqT2OGXt6RS_ryf-28">
          <mxGeometry relative="1" as="geometry" />
        </mxCell>
        <mxCell id="H-KXJWqT2OGXt6RS_ryf-48" value="yes" style="edgeStyle=none;curved=1;rounded=0;orthogonalLoop=1;jettySize=auto;html=1;fontSize=12;startSize=8;endSize=8;" edge="1" parent="1" source="H-KXJWqT2OGXt6RS_ryf-32" target="H-KXJWqT2OGXt6RS_ryf-29">
          <mxGeometry x="-0.8095" y="-2" relative="1" as="geometry">
            <Array as="points">
              <mxPoint x="72" y="128" />
              <mxPoint x="19" y="146" />
              <mxPoint x="2" y="434" />
            </Array>
            <mxPoint as="offset" />
          </mxGeometry>
        </mxCell>
        <mxCell id="H-KXJWqT2OGXt6RS_ryf-32" value="Check if patient has current Triage Application" style="rhombus;whiteSpace=wrap;html=1;fontFamily=Helvetica;fontSize=12;fontColor=#000000;align=center;" vertex="1" parent="1">
          <mxGeometry x="226" y="54" width="129" height="91" as="geometry" />
        </mxCell>
        <mxCell id="H-KXJWqT2OGXt6RS_ryf-43" style="edgeStyle=none;curved=1;rounded=0;orthogonalLoop=1;jettySize=auto;html=1;fontSize=12;startSize=8;endSize=8;entryX=1;entryY=0;entryDx=0;entryDy=0;exitX=0.788;exitY=1;exitDx=0;exitDy=0;exitPerimeter=0;" edge="1" parent="1" source="H-KXJWqT2OGXt6RS_ryf-35" target="H-KXJWqT2OGXt6RS_ryf-36">
          <mxGeometry relative="1" as="geometry">
            <Array as="points">
              <mxPoint x="137" y="383" />
            </Array>
          </mxGeometry>
        </mxCell>
        <mxCell id="H-KXJWqT2OGXt6RS_ryf-35" value="enterfields" style="rounded=0;whiteSpace=wrap;html=1;fontFamily=Helvetica;fontSize=12;fontColor=#000000;align=center;" vertex="1" parent="1">
          <mxGeometry x="53" y="300" width="80" height="60" as="geometry" />
        </mxCell>
        <mxCell id="H-KXJWqT2OGXt6RS_ryf-45" value="yes" style="edgeStyle=none;curved=1;rounded=0;orthogonalLoop=1;jettySize=auto;html=1;entryX=0;entryY=0.5;entryDx=0;entryDy=0;fontSize=12;startSize=8;endSize=8;" edge="1" parent="1" source="H-KXJWqT2OGXt6RS_ryf-36" target="H-KXJWqT2OGXt6RS_ryf-38">
          <mxGeometry relative="1" as="geometry" />
        </mxCell>
        <mxCell id="H-KXJWqT2OGXt6RS_ryf-47" value="no" style="edgeStyle=none;curved=1;rounded=0;orthogonalLoop=1;jettySize=auto;html=1;entryX=0.25;entryY=1;entryDx=0;entryDy=0;fontSize=12;startSize=8;endSize=8;exitX=0;exitY=0;exitDx=0;exitDy=0;" edge="1" parent="1" source="H-KXJWqT2OGXt6RS_ryf-36" target="H-KXJWqT2OGXt6RS_ryf-35">
          <mxGeometry relative="1" as="geometry">
            <Array as="points">
              <mxPoint x="43" y="381" />
            </Array>
          </mxGeometry>
        </mxCell>
        <mxCell id="H-KXJWqT2OGXt6RS_ryf-36" value="are all fields filled" style="rhombus;whiteSpace=wrap;html=1;fontFamily=Helvetica;fontSize=12;fontColor=#000000;align=center;" vertex="1" parent="1">
          <mxGeometry x="37.5" y="395" width="118" height="67" as="geometry" />
        </mxCell>
        <mxCell id="H-KXJWqT2OGXt6RS_ryf-68" style="edgeStyle=none;curved=1;rounded=0;orthogonalLoop=1;jettySize=auto;html=1;fontSize=12;startSize=8;endSize=8;" edge="1" parent="1" source="H-KXJWqT2OGXt6RS_ryf-38" target="H-KXJWqT2OGXt6RS_ryf-67">
          <mxGeometry relative="1" as="geometry" />
        </mxCell>
        <mxCell id="H-KXJWqT2OGXt6RS_ryf-38" value="process triage application" style="ellipse;whiteSpace=wrap;html=1;" vertex="1" parent="1">
          <mxGeometry x="244" y="386.5" width="80.5" height="70" as="geometry" />
        </mxCell>
        <mxCell id="H-KXJWqT2OGXt6RS_ryf-54" style="edgeStyle=none;curved=1;rounded=0;orthogonalLoop=1;jettySize=auto;html=1;fontSize=12;startSize=8;endSize=8;" edge="1" parent="1" source="H-KXJWqT2OGXt6RS_ryf-21" target="H-KXJWqT2OGXt6RS_ryf-51">
          <mxGeometry relative="1" as="geometry" />
        </mxCell>
        <mxCell id="H-KXJWqT2OGXt6RS_ryf-71" style="edgeStyle=none;curved=1;rounded=0;orthogonalLoop=1;jettySize=auto;html=1;fontSize=12;startSize=8;endSize=8;" edge="1" parent="1" source="H-KXJWqT2OGXt6RS_ryf-51" target="H-KXJWqT2OGXt6RS_ryf-38">
          <mxGeometry relative="1" as="geometry" />
        </mxCell>
        <mxCell id="H-KXJWqT2OGXt6RS_ryf-51" value="delete triage application" style="ellipse;whiteSpace=wrap;html=1;" vertex="1" parent="1">
          <mxGeometry x="250.25" y="498.5" width="80.5" height="70" as="geometry" />
        </mxCell>
        <mxCell id="H-KXJWqT2OGXt6RS_ryf-65" value="Patent Views Applications&amp;nbsp;" style="ellipse;whiteSpace=wrap;html=1;" vertex="1" parent="1">
          <mxGeometry x="50" y="84" width="113" height="40" as="geometry" />
        </mxCell>
        <mxCell id="H-KXJWqT2OGXt6RS_ryf-69" style="edgeStyle=none;curved=1;rounded=0;orthogonalLoop=1;jettySize=auto;html=1;fontSize=12;startSize=8;endSize=8;" edge="1" parent="1" source="H-KXJWqT2OGXt6RS_ryf-67" target="H-KXJWqT2OGXt6RS_ryf-30">
          <mxGeometry relative="1" as="geometry" />
        </mxCell>
        <mxCell id="H-KXJWqT2OGXt6RS_ryf-67" value="make triage order" style="rounded=0;whiteSpace=wrap;html=1;fontFamily=Helvetica;fontSize=12;fontColor=#000000;align=center;" vertex="1" parent="1">
          <mxGeometry x="244.5" y="248" width="80" height="60" as="geometry" />
        </mxCell>
        <mxCell id="H-KXJWqT2OGXt6RS_ryf-70" style="edgeStyle=none;curved=1;rounded=0;orthogonalLoop=1;jettySize=auto;html=1;fontSize=12;startSize=8;endSize=8;" edge="1" parent="1" source="H-KXJWqT2OGXt6RS_ryf-63" target="H-KXJWqT2OGXt6RS_ryf-38">
          <mxGeometry relative="1" as="geometry">
            <Array as="points">
              <mxPoint x="384" y="484" />
            </Array>
          </mxGeometry>
        </mxCell>
        <mxCell id="H-KXJWqT2OGXt6RS_ryf-75" value="yes" style="edgeStyle=none;curved=1;rounded=0;orthogonalLoop=1;jettySize=auto;html=1;fontSize=12;startSize=8;endSize=8;" edge="1" parent="1" source="H-KXJWqT2OGXt6RS_ryf-74" target="H-KXJWqT2OGXt6RS_ryf-51">
          <mxGeometry x="-0.7221" y="-1" relative="1" as="geometry">
            <mxPoint as="offset" />
          </mxGeometry>
        </mxCell>
      </root>
    </mxGraphModel>
  </diagram>
</mxfile>
